<svg width="218" height="161" viewBox="0 0 218 161" fill="none" xmlns="http://www.w3.org/2000/svg">
<path d="M25.1985 156.5V145.591H29.1935C29.9677 145.591 30.6087 145.719 31.1165 145.974C31.6243 146.227 32.0043 146.569 32.2564 147.002C32.5085 147.432 32.6346 147.917 32.6346 148.457C32.6346 148.911 32.5511 149.295 32.3842 149.607C32.2173 149.916 31.9936 150.165 31.7131 150.353C31.4361 150.538 31.1307 150.673 30.7969 150.758V150.864C31.1591 150.882 31.5124 150.999 31.8569 151.216C32.2049 151.429 32.4925 151.733 32.7198 152.127C32.9471 152.521 33.0607 153 33.0607 153.565C33.0607 154.123 32.9293 154.623 32.6665 155.067C32.4073 155.507 32.006 155.857 31.4627 156.116C30.9194 156.372 30.2251 156.5 29.38 156.5H25.1985ZM26.8445 155.088H29.2202C30.0085 155.088 30.5732 154.936 30.9141 154.63C31.255 154.325 31.4254 153.943 31.4254 153.485C31.4254 153.141 31.3384 152.825 31.1644 152.537C30.9904 152.249 30.7418 152.02 30.4187 151.85C30.0991 151.679 29.7191 151.594 29.2788 151.594H26.8445V155.088ZM26.8445 150.31H29.0497C29.419 150.31 29.7511 150.239 30.0458 150.097C30.3441 149.955 30.5803 149.756 30.7543 149.501C30.9318 149.241 31.0206 148.936 31.0206 148.585C31.0206 148.134 30.8626 147.755 30.5465 147.45C30.2305 147.145 29.7457 146.992 29.0923 146.992H26.8445V150.31ZM34.8851 156.5V148.318H36.4245V149.618H36.5098C36.6589 149.178 36.9217 148.831 37.2981 148.579C37.6781 148.324 38.1078 148.196 38.5872 148.196C38.6866 148.196 38.8038 148.199 38.9387 148.206C39.0772 148.213 39.1855 148.222 39.2637 148.233V149.756C39.1998 149.739 39.0861 149.719 38.9228 149.698C38.7594 149.673 38.5961 149.661 38.4327 149.661C38.0563 149.661 37.7207 149.74 37.426 149.9C37.1348 150.056 36.9039 150.275 36.7335 150.555C36.563 150.832 36.4778 151.148 36.4778 151.504V156.5H34.8851ZM43.8753 156.665C43.0692 156.665 42.3749 156.493 41.7925 156.148C41.2137 155.8 40.7662 155.312 40.4502 154.684C40.1377 154.051 39.9814 153.311 39.9814 152.462C39.9814 151.624 40.1377 150.886 40.4502 150.246C40.7662 149.607 41.2066 149.108 41.7712 148.75C42.3394 148.391 43.0035 148.212 43.7634 148.212C44.2251 148.212 44.6725 148.288 45.1057 148.441C45.539 148.593 45.9278 148.833 46.2723 149.16C46.6167 149.487 46.8884 149.911 47.0873 150.433C47.2861 150.951 47.3856 151.582 47.3856 152.324V152.888H40.8817V151.695H45.8248C45.8248 151.276 45.7396 150.905 45.5692 150.582C45.3987 150.255 45.159 149.998 44.8501 149.81C44.5447 149.621 44.186 149.527 43.7741 149.527C43.3266 149.527 42.936 149.637 42.6022 149.858C42.2719 150.074 42.0162 150.358 41.8351 150.71C41.6576 151.058 41.5688 151.436 41.5688 151.844V152.777C41.5688 153.324 41.6647 153.789 41.8564 154.172C42.0518 154.556 42.3234 154.849 42.6714 155.051C43.0194 155.25 43.426 155.349 43.8912 155.349C44.1931 155.349 44.4683 155.307 44.7169 155.222C44.9655 155.133 45.1803 155.001 45.3614 154.827C45.5425 154.653 45.681 154.439 45.7769 154.183L47.2844 154.455C47.1636 154.898 46.947 155.287 46.6345 155.621C46.3255 155.951 45.9367 156.209 45.4679 156.393C45.0027 156.575 44.4719 156.665 43.8753 156.665ZM51.5337 156.681C51.0153 156.681 50.5465 156.585 50.1275 156.393C49.7084 156.198 49.3764 155.916 49.1314 155.547C48.8899 155.177 48.7692 154.724 48.7692 154.188C48.7692 153.727 48.858 153.347 49.0355 153.048C49.2131 152.75 49.4528 152.514 49.7546 152.34C50.0565 152.166 50.3938 152.034 50.7667 151.946C51.1396 151.857 51.5195 151.789 51.9066 151.743C52.3967 151.686 52.7944 151.64 53.0998 151.605C53.4052 151.566 53.6271 151.504 53.7656 151.418C53.9041 151.333 53.9734 151.195 53.9734 151.003V150.966C53.9734 150.5 53.842 150.14 53.5792 149.884C53.32 149.629 52.9329 149.501 52.418 149.501C51.8817 149.501 51.4592 149.62 51.1502 149.858C50.8448 150.092 50.6335 150.353 50.5163 150.641L49.0195 150.3C49.1971 149.803 49.4563 149.401 49.7972 149.096C50.1417 148.787 50.5376 148.563 50.9851 148.425C51.4325 148.283 51.9031 148.212 52.3967 148.212C52.7234 148.212 53.0696 148.251 53.4354 148.329C53.8047 148.403 54.1491 148.542 54.4687 148.744C54.7919 148.947 55.0565 149.236 55.2624 149.613C55.4684 149.985 55.5714 150.47 55.5714 151.067V156.5H54.016V155.381H53.9521C53.8491 155.587 53.6946 155.79 53.4886 155.989C53.2827 156.188 53.0181 156.353 52.695 156.484C52.3718 156.615 51.9847 156.681 51.5337 156.681ZM51.88 155.403C52.3203 155.403 52.6967 155.316 53.0092 155.142C53.3253 154.968 53.565 154.74 53.7283 154.46C53.8952 154.176 53.9787 153.872 53.9787 153.549V152.494C53.9219 152.551 53.8118 152.604 53.6484 152.654C53.4886 152.7 53.3058 152.741 53.0998 152.777C52.8938 152.809 52.6932 152.839 52.4979 152.867C52.3026 152.892 52.1392 152.913 52.0078 152.931C51.6989 152.97 51.4165 153.036 51.1609 153.128C50.9087 153.221 50.7063 153.354 50.5536 153.528C50.4045 153.698 50.3299 153.925 50.3299 154.21C50.3299 154.604 50.4755 154.902 50.7667 155.104C51.0579 155.303 51.429 155.403 51.88 155.403ZM63.8238 150.316L62.3802 150.571C62.3199 150.387 62.224 150.211 62.0926 150.044C61.9648 149.877 61.7907 149.74 61.5706 149.634C61.3504 149.527 61.0752 149.474 60.7449 149.474C60.2939 149.474 59.9175 149.575 59.6157 149.778C59.3138 149.977 59.1629 150.234 59.1629 150.55C59.1629 150.824 59.2641 151.044 59.4665 151.211C59.6689 151.377 59.9956 151.514 60.4466 151.621L61.7464 151.919C62.4992 152.093 63.0603 152.361 63.4296 152.723C63.7989 153.086 63.9836 153.556 63.9836 154.135C63.9836 154.625 63.8415 155.062 63.5574 155.445C63.2769 155.825 62.8845 156.124 62.3802 156.34C61.8795 156.557 61.2989 156.665 60.6384 156.665C59.7222 156.665 58.9747 156.47 58.3959 156.079C57.817 155.685 57.4619 155.126 57.3305 154.401L58.8699 154.167C58.9658 154.568 59.1629 154.872 59.4612 155.078C59.7595 155.28 60.1483 155.381 60.6277 155.381C61.1498 155.381 61.567 155.273 61.8795 155.056C62.192 154.836 62.3483 154.568 62.3483 154.252C62.3483 153.996 62.2524 153.782 62.0606 153.608C61.8724 153.434 61.583 153.302 61.1924 153.213L59.8074 152.91C59.0439 152.736 58.4793 152.459 58.1135 152.079C57.7513 151.699 57.5702 151.218 57.5702 150.635C57.5702 150.152 57.7052 149.73 57.975 149.368C58.2449 149.005 58.6178 148.723 59.0937 148.521C59.5695 148.315 60.1146 148.212 60.729 148.212C61.6132 148.212 62.3092 148.403 62.817 148.787C63.3248 149.167 63.6604 149.676 63.8238 150.316ZM69.554 148.318V149.597H65.0849V148.318H69.554ZM66.2834 146.358H67.8761V154.098C67.8761 154.407 67.9222 154.639 68.0146 154.795C68.1069 154.948 68.2258 155.053 68.3714 155.11C68.5206 155.163 68.6822 155.19 68.8562 155.19C68.984 155.19 69.0959 155.181 69.1918 155.163C69.2876 155.145 69.3622 155.131 69.4155 155.12L69.7031 156.436C69.6108 156.472 69.4794 156.507 69.3089 156.543C69.1385 156.582 68.9254 156.603 68.6697 156.607C68.2507 156.614 67.8601 156.539 67.4979 156.383C67.1356 156.227 66.8427 155.985 66.619 155.658C66.3952 155.332 66.2834 154.922 66.2834 154.428V146.358ZM84.4741 149.138H82.8121C82.7482 148.783 82.6293 148.471 82.4553 148.201C82.2812 147.931 82.0682 147.702 81.816 147.514C81.5639 147.326 81.2816 147.184 80.9691 147.088C80.6602 146.992 80.3317 146.944 79.9837 146.944C79.3551 146.944 78.7923 147.102 78.2951 147.418C77.8015 147.734 77.4109 148.197 77.1232 148.808C76.8391 149.419 76.6971 150.165 76.6971 151.045C76.6971 151.933 76.8391 152.683 77.1232 153.293C77.4109 153.904 77.8033 154.366 78.3004 154.678C78.7976 154.991 79.3569 155.147 79.9783 155.147C80.3228 155.147 80.6495 155.101 80.9584 155.009C81.2709 154.913 81.5533 154.772 81.8054 154.588C82.0575 154.403 82.2706 154.178 82.4446 153.911C82.6222 153.641 82.7447 153.332 82.8121 152.984L84.4741 152.99C84.3853 153.526 84.2131 154.02 83.9574 154.471C83.7053 154.918 83.3803 155.305 82.9826 155.632C82.5884 155.955 82.1374 156.205 81.6296 156.383C81.1218 156.56 80.5678 156.649 79.9677 156.649C79.0231 156.649 78.1815 156.425 77.4428 155.978C76.7042 155.527 76.1218 154.882 75.6957 154.044C75.2731 153.206 75.0618 152.207 75.0618 151.045C75.0618 149.881 75.2749 148.881 75.701 148.047C76.1271 147.208 76.7095 146.566 77.4481 146.118C78.1868 145.667 79.0266 145.442 79.9677 145.442C80.5465 145.442 81.0863 145.525 81.587 145.692C82.0913 145.855 82.544 146.097 82.9453 146.417C83.3466 146.733 83.6786 147.12 83.9414 147.578C84.2042 148.032 84.3817 148.553 84.4741 149.138ZM88.6968 156.681C88.1783 156.681 87.7096 156.585 87.2906 156.393C86.8715 156.198 86.5395 155.916 86.2945 155.547C86.053 155.177 85.9323 154.724 85.9323 154.188C85.9323 153.727 86.021 153.347 86.1986 153.048C86.3761 152.75 86.6158 152.514 86.9177 152.34C87.2195 152.166 87.5569 152.034 87.9298 151.946C88.3026 151.857 88.6826 151.789 89.0697 151.743C89.5597 151.686 89.9575 151.64 90.2629 151.605C90.5683 151.566 90.7902 151.504 90.9287 151.418C91.0672 151.333 91.1364 151.195 91.1364 151.003V150.966C91.1364 150.5 91.0051 150.14 90.7423 149.884C90.483 149.629 90.096 149.501 89.581 149.501C89.0448 149.501 88.6222 149.62 88.3133 149.858C88.0079 150.092 87.7966 150.353 87.6794 150.641L86.1826 150.3C86.3602 149.803 86.6194 149.401 86.9603 149.096C87.3048 148.787 87.7007 148.563 88.1482 148.425C88.5956 148.283 89.0661 148.212 89.5597 148.212C89.8864 148.212 90.2327 148.251 90.5984 148.329C90.9678 148.403 91.3122 148.542 91.6318 148.744C91.955 148.947 92.2195 149.236 92.4255 149.613C92.6315 149.985 92.7345 150.47 92.7345 151.067V156.5H91.1791V155.381H91.1151C91.0122 155.587 90.8577 155.79 90.6517 155.989C90.4457 156.188 90.1812 156.353 89.858 156.484C89.5349 156.615 89.1478 156.681 88.6968 156.681ZM89.043 155.403C89.4834 155.403 89.8598 155.316 90.1723 155.142C90.4884 154.968 90.7281 154.74 90.8914 154.46C91.0583 154.176 91.1418 153.872 91.1418 153.549V152.494C91.085 152.551 90.9749 152.604 90.8115 152.654C90.6517 152.7 90.4688 152.741 90.2629 152.777C90.0569 152.809 89.8563 152.839 89.6609 152.867C89.4656 152.892 89.3023 152.913 89.1709 152.931C88.8619 152.97 88.5796 153.036 88.3239 153.128C88.0718 153.221 87.8694 153.354 87.7167 153.528C87.5676 153.698 87.493 153.925 87.493 154.21C87.493 154.604 87.6386 154.902 87.9298 155.104C88.221 155.303 88.5921 155.403 89.043 155.403ZM96.4485 151.642V156.5H94.8558V148.318H96.3846V149.65H96.4858C96.674 149.217 96.9687 148.869 97.37 148.606C97.7749 148.343 98.2844 148.212 98.8988 148.212C99.4563 148.212 99.9446 148.329 100.364 148.563C100.783 148.794 101.108 149.138 101.338 149.597C101.569 150.055 101.685 150.621 101.685 151.296V156.5H100.092V151.488C100.092 150.895 99.9375 150.431 99.6285 150.097C99.3196 149.76 98.8952 149.591 98.3555 149.591C97.9861 149.591 97.6577 149.671 97.37 149.831C97.0859 149.991 96.8604 150.225 96.6935 150.534C96.5302 150.839 96.4485 151.209 96.4485 151.642ZM107.267 156.665C106.475 156.665 105.793 156.486 105.222 156.127C104.653 155.765 104.217 155.266 103.911 154.63C103.606 153.995 103.453 153.267 103.453 152.446C103.453 151.615 103.609 150.882 103.922 150.246C104.234 149.607 104.675 149.108 105.243 148.75C105.811 148.391 106.48 148.212 107.251 148.212C107.873 148.212 108.426 148.327 108.913 148.558C109.399 148.785 109.792 149.105 110.09 149.517C110.392 149.929 110.571 150.41 110.628 150.96H109.078C108.993 150.577 108.798 150.246 108.492 149.969C108.19 149.692 107.786 149.554 107.278 149.554C106.834 149.554 106.445 149.671 106.111 149.906C105.781 150.136 105.523 150.467 105.339 150.896C105.154 151.322 105.062 151.827 105.062 152.409C105.062 153.006 105.152 153.521 105.333 153.954C105.515 154.387 105.77 154.723 106.1 154.961C106.434 155.199 106.827 155.317 107.278 155.317C107.58 155.317 107.853 155.262 108.098 155.152C108.347 155.039 108.554 154.877 108.721 154.668C108.892 154.458 109.011 154.206 109.078 153.911H110.628C110.571 154.44 110.399 154.913 110.111 155.328C109.824 155.744 109.439 156.07 108.956 156.308C108.476 156.546 107.913 156.665 107.267 156.665ZM115.858 156.665C115.052 156.665 114.357 156.493 113.775 156.148C113.196 155.8 112.749 155.312 112.433 154.684C112.12 154.051 111.964 153.311 111.964 152.462C111.964 151.624 112.12 150.886 112.433 150.246C112.749 149.607 113.189 149.108 113.754 148.75C114.322 148.391 114.986 148.212 115.746 148.212C116.207 148.212 116.655 148.288 117.088 148.441C117.521 148.593 117.91 148.833 118.255 149.16C118.599 149.487 118.871 149.911 119.07 150.433C119.269 150.951 119.368 151.582 119.368 152.324V152.888H112.864V151.695H117.807C117.807 151.276 117.722 150.905 117.552 150.582C117.381 150.255 117.141 149.998 116.832 149.81C116.527 149.621 116.168 149.527 115.756 149.527C115.309 149.527 114.918 149.637 114.585 149.858C114.254 150.074 113.999 150.358 113.818 150.71C113.64 151.058 113.551 151.436 113.551 151.844V152.777C113.551 153.324 113.647 153.789 113.839 154.172C114.034 154.556 114.306 154.849 114.654 155.051C115.002 155.25 115.408 155.349 115.874 155.349C116.176 155.349 116.451 155.307 116.699 155.222C116.948 155.133 117.163 155.001 117.344 154.827C117.525 154.653 117.663 154.439 117.759 154.183L119.267 154.455C119.146 154.898 118.929 155.287 118.617 155.621C118.308 155.951 117.919 156.209 117.45 156.393C116.985 156.575 116.454 156.665 115.858 156.665ZM121.135 156.5V148.318H122.675V149.618H122.76C122.909 149.178 123.172 148.831 123.548 148.579C123.928 148.324 124.358 148.196 124.837 148.196C124.937 148.196 125.054 148.199 125.189 148.206C125.327 148.213 125.436 148.222 125.514 148.233V149.756C125.45 149.739 125.336 149.719 125.173 149.698C125.009 149.673 124.846 149.661 124.683 149.661C124.306 149.661 123.971 149.74 123.676 149.9C123.385 150.056 123.154 150.275 122.983 150.555C122.813 150.832 122.728 151.148 122.728 151.504V156.5H121.135ZM134.521 156.5H130.99V145.591H134.633C135.702 145.591 136.62 145.809 137.387 146.246C138.154 146.679 138.742 147.303 139.15 148.116C139.562 148.925 139.768 149.897 139.768 151.029C139.768 152.166 139.56 153.142 139.145 153.959C138.733 154.776 138.136 155.404 137.355 155.845C136.574 156.282 135.629 156.5 134.521 156.5ZM132.635 155.062H134.431C135.262 155.062 135.952 154.906 136.503 154.593C137.053 154.277 137.465 153.821 137.738 153.224C138.012 152.624 138.149 151.892 138.149 151.029C138.149 150.174 138.012 149.447 137.738 148.851C137.469 148.254 137.066 147.801 136.529 147.493C135.993 147.184 135.327 147.029 134.532 147.029H132.635V155.062ZM145.213 156.665C144.407 156.665 143.713 156.493 143.13 156.148C142.552 155.8 142.104 155.312 141.788 154.684C141.476 154.051 141.319 153.311 141.319 152.462C141.319 151.624 141.476 150.886 141.788 150.246C142.104 149.607 142.544 149.108 143.109 148.75C143.677 148.391 144.341 148.212 145.101 148.212C145.563 148.212 146.01 148.288 146.444 148.441C146.877 148.593 147.266 148.833 147.61 149.16C147.955 149.487 148.226 149.911 148.425 150.433C148.624 150.951 148.723 151.582 148.723 152.324V152.888H142.22V151.695H147.163C147.163 151.276 147.077 150.905 146.907 150.582C146.737 150.255 146.497 149.998 146.188 149.81C145.883 149.621 145.524 149.527 145.112 149.527C144.664 149.527 144.274 149.637 143.94 149.858C143.61 150.074 143.354 150.358 143.173 150.71C142.995 151.058 142.907 151.436 142.907 151.844V152.777C142.907 153.324 143.003 153.789 143.194 154.172C143.39 154.556 143.661 154.849 144.009 155.051C144.357 155.25 144.764 155.349 145.229 155.349C145.531 155.349 145.806 155.307 146.055 155.222C146.303 155.133 146.518 155.001 146.699 154.827C146.88 154.653 147.019 154.439 147.115 154.183L148.622 154.455C148.501 154.898 148.285 155.287 147.972 155.621C147.663 155.951 147.275 156.209 146.806 156.393C146.341 156.575 145.81 156.665 145.213 156.665ZM154.31 148.318V149.597H149.841V148.318H154.31ZM151.039 146.358H152.632V154.098C152.632 154.407 152.678 154.639 152.77 154.795C152.863 154.948 152.982 155.053 153.127 155.11C153.276 155.163 153.438 155.19 153.612 155.19C153.74 155.19 153.852 155.181 153.948 155.163C154.043 155.145 154.118 155.131 154.171 155.12L154.459 156.436C154.367 156.472 154.235 156.507 154.065 156.543C153.894 156.582 153.681 156.603 153.426 156.607C153.007 156.614 152.616 156.539 152.254 156.383C151.891 156.227 151.599 155.985 151.375 155.658C151.151 155.332 151.039 154.922 151.039 154.428V146.358ZM156.072 156.5V148.318H157.664V156.5H156.072ZM156.876 147.056C156.599 147.056 156.361 146.963 156.162 146.779C155.967 146.591 155.869 146.367 155.869 146.108C155.869 145.845 155.967 145.621 156.162 145.436C156.361 145.248 156.599 145.154 156.876 145.154C157.153 145.154 157.389 145.248 157.584 145.436C157.783 145.621 157.883 145.845 157.883 146.108C157.883 146.367 157.783 146.591 157.584 146.779C157.389 146.963 157.153 147.056 156.876 147.056ZM163.253 156.665C162.461 156.665 161.78 156.486 161.208 156.127C160.64 155.765 160.203 155.266 159.898 154.63C159.592 153.995 159.439 153.267 159.439 152.446C159.439 151.615 159.596 150.882 159.908 150.246C160.221 149.607 160.661 149.108 161.229 148.75C161.797 148.391 162.467 148.212 163.237 148.212C163.859 148.212 164.413 148.327 164.899 148.558C165.386 148.785 165.778 149.105 166.077 149.517C166.378 149.929 166.558 150.41 166.615 150.96H165.064C164.979 150.577 164.784 150.246 164.479 149.969C164.177 149.692 163.772 149.554 163.264 149.554C162.82 149.554 162.431 149.671 162.097 149.906C161.767 150.136 161.51 150.467 161.325 150.896C161.14 151.322 161.048 151.827 161.048 152.409C161.048 153.006 161.139 153.521 161.32 153.954C161.501 154.387 161.757 154.723 162.087 154.961C162.421 155.199 162.813 155.317 163.264 155.317C163.566 155.317 163.839 155.262 164.084 155.152C164.333 155.039 164.541 154.877 164.708 154.668C164.878 154.458 164.997 154.206 165.064 153.911H166.615C166.558 154.44 166.385 154.913 166.098 155.328C165.81 155.744 165.425 156.07 164.942 156.308C164.463 156.546 163.9 156.665 163.253 156.665ZM172.137 148.318V149.597H167.668V148.318H172.137ZM168.866 146.358H170.459V154.098C170.459 154.407 170.505 154.639 170.598 154.795C170.69 154.948 170.809 155.053 170.954 155.11C171.104 155.163 171.265 155.19 171.439 155.19C171.567 155.19 171.679 155.181 171.775 155.163C171.871 155.145 171.945 155.131 171.998 155.12L172.286 156.436C172.194 156.472 172.062 156.507 171.892 156.543C171.721 156.582 171.508 156.603 171.253 156.607C170.834 156.614 170.443 156.539 170.081 156.383C169.719 156.227 169.426 155.985 169.202 155.658C168.978 155.332 168.866 154.922 168.866 154.428V146.358ZM173.899 156.5V148.318H175.491V156.5H173.899ZM174.703 147.056C174.426 147.056 174.188 146.963 173.989 146.779C173.794 146.591 173.696 146.367 173.696 146.108C173.696 145.845 173.794 145.621 173.989 145.436C174.188 145.248 174.426 145.154 174.703 145.154C174.98 145.154 175.216 145.248 175.412 145.436C175.61 145.621 175.71 145.845 175.71 146.108C175.71 146.367 175.61 146.591 175.412 146.779C175.216 146.963 174.98 147.056 174.703 147.056ZM181.081 156.665C180.313 156.665 179.644 156.489 179.072 156.138C178.501 155.786 178.057 155.294 177.741 154.662C177.425 154.03 177.267 153.292 177.267 152.446C177.267 151.598 177.425 150.855 177.741 150.22C178.057 149.584 178.501 149.091 179.072 148.739C179.644 148.387 180.313 148.212 181.081 148.212C181.848 148.212 182.517 148.387 183.089 148.739C183.66 149.091 184.104 149.584 184.42 150.22C184.736 150.855 184.894 151.598 184.894 152.446C184.894 153.292 184.736 154.03 184.42 154.662C184.104 155.294 183.66 155.786 183.089 156.138C182.517 156.489 181.848 156.665 181.081 156.665ZM181.086 155.328C181.583 155.328 181.995 155.197 182.322 154.934C182.648 154.671 182.89 154.321 183.046 153.885C183.206 153.448 183.286 152.967 183.286 152.441C183.286 151.919 183.206 151.44 183.046 151.003C182.89 150.563 182.648 150.209 182.322 149.943C181.995 149.676 181.583 149.543 181.086 149.543C180.585 149.543 180.17 149.676 179.839 149.943C179.513 150.209 179.269 150.563 179.11 151.003C178.953 151.44 178.875 151.919 178.875 152.441C178.875 152.967 178.953 153.448 179.11 153.885C179.269 154.321 179.513 154.671 179.839 154.934C180.17 155.197 180.585 155.328 181.086 155.328ZM188.265 151.642V156.5H186.672V148.318H188.201V149.65H188.302C188.49 149.217 188.785 148.869 189.186 148.606C189.591 148.343 190.101 148.212 190.715 148.212C191.273 148.212 191.761 148.329 192.18 148.563C192.599 148.794 192.924 149.138 193.155 149.597C193.386 150.055 193.501 150.621 193.501 151.296V156.5H191.908V151.488C191.908 150.895 191.754 150.431 191.445 150.097C191.136 149.76 190.712 149.591 190.172 149.591C189.803 149.591 189.474 149.671 189.186 149.831C188.902 149.991 188.677 150.225 188.51 150.534C188.347 150.839 188.265 151.209 188.265 151.642Z" fill="white"/>
<path d="M5.09126 131H0.642401L7.42116 111.364H12.7713L19.5405 131H15.0916L10.1729 115.851H10.0195L5.09126 131ZM4.81321 123.282H15.3217V126.522H4.81321V123.282ZM26.0556 111.364V131H21.9039V111.364H26.0556ZM38.5704 119.561V122.802H29.6151V119.561H38.5704ZM42.1276 131V111.364H49.9898C51.4344 111.364 52.6393 111.578 53.6045 112.006C54.5697 112.434 55.2952 113.029 55.781 113.789C56.2668 114.544 56.5097 115.413 56.5097 116.397C56.5097 117.164 56.3563 117.839 56.0494 118.42C55.7426 118.996 55.3208 119.469 54.7838 119.839C54.2533 120.204 53.646 120.463 52.9621 120.616V120.808C53.71 120.84 54.4099 121.051 55.0619 121.441C55.7203 121.831 56.254 122.377 56.6631 123.08C57.0722 123.777 57.2767 124.608 57.2767 125.573C57.2767 126.615 57.0178 127.545 56.5001 128.363C55.9887 129.175 55.2313 129.817 54.2277 130.29C53.2242 130.763 51.9873 131 50.5171 131H42.1276ZM46.2792 127.606H49.6638C50.8208 127.606 51.6645 127.385 52.195 126.944C52.7256 126.497 52.9909 125.902 52.9909 125.161C52.9909 124.618 52.8598 124.138 52.5977 123.723C52.3357 123.307 51.9617 122.981 51.4759 122.745C50.9965 122.508 50.4244 122.39 49.7597 122.39H46.2792V127.606ZM46.2792 119.581H49.357C49.9259 119.581 50.4308 119.482 50.8719 119.283C51.3193 119.079 51.6709 118.791 51.9266 118.42C52.1886 118.05 52.3197 117.605 52.3197 117.088C52.3197 116.378 52.0672 115.806 51.5622 115.371C51.0636 114.937 50.3541 114.719 49.4337 114.719H46.2792V119.581ZM63.3627 131H58.9139L65.6926 111.364H71.0428L77.812 131H73.3631L68.4444 115.851H68.291L63.3627 131ZM63.0847 123.282H73.5932V126.522H63.0847V123.282ZM90.3795 117.011C90.3028 116.238 89.9736 115.637 89.3919 115.208C88.8103 114.78 88.0209 114.566 87.0237 114.566C86.3461 114.566 85.7741 114.662 85.3074 114.854C84.8408 115.039 84.4829 115.298 84.2336 115.63C83.9907 115.963 83.8692 116.34 83.8692 116.762C83.8564 117.113 83.9299 117.42 84.0897 117.682C84.2559 117.944 84.4829 118.171 84.7705 118.363C85.0581 118.548 85.3905 118.711 85.7677 118.852C86.1448 118.986 86.5475 119.101 86.9758 119.197L88.74 119.619C89.5965 119.811 90.3827 120.066 91.0986 120.386C91.8145 120.706 92.4346 121.099 92.9587 121.565C93.4829 122.032 93.8888 122.582 94.1764 123.214C94.4704 123.847 94.6206 124.573 94.627 125.391C94.6206 126.593 94.3138 127.635 93.7066 128.517C93.1057 129.392 92.2364 130.073 91.0986 130.559C89.9672 131.038 88.6025 131.278 87.0045 131.278C85.4193 131.278 84.0386 131.035 82.8625 130.549C81.6927 130.064 80.7787 129.344 80.1203 128.392C79.4683 127.433 79.1263 126.248 79.0944 124.835H83.1118C83.1565 125.493 83.3451 126.043 83.6775 126.484C84.0162 126.919 84.4669 127.248 85.0294 127.472C85.5983 127.689 86.2407 127.798 86.9566 127.798C87.6597 127.798 88.2701 127.695 88.7879 127.491C89.312 127.286 89.7179 127.002 90.0056 126.637C90.2932 126.273 90.437 125.854 90.437 125.381C90.437 124.94 90.306 124.57 90.0439 124.269C89.7883 123.969 89.4111 123.713 88.9125 123.502C88.4204 123.291 87.8163 123.099 87.1004 122.927L84.9623 122.39C83.3067 121.987 81.9995 121.358 81.0407 120.501C80.0819 119.645 79.6057 118.491 79.6121 117.04C79.6057 115.851 79.9221 114.812 80.5613 113.924C81.2069 113.035 82.0922 112.342 83.2172 111.843C84.3422 111.344 85.6206 111.095 87.0525 111.095C88.5098 111.095 89.7819 111.344 90.8685 111.843C91.9616 112.342 92.8117 113.035 93.4189 113.924C94.0262 114.812 94.3394 115.841 94.3586 117.011H90.3795ZM97.4196 131V111.364H110.651V114.787H101.571V119.466H109.97V122.888H101.571V127.577H110.689V131H97.4196ZM120.913 131H113.952V111.364H120.97C122.945 111.364 124.646 111.757 126.071 112.543C127.497 113.323 128.593 114.445 129.36 115.908C130.133 117.372 130.52 119.124 130.52 121.163C130.52 123.208 130.133 124.966 129.36 126.436C128.593 127.906 127.49 129.034 126.052 129.821C124.62 130.607 122.907 131 120.913 131ZM118.103 127.443H120.74C121.967 127.443 123 127.225 123.837 126.791C124.681 126.35 125.314 125.669 125.736 124.749C126.164 123.822 126.378 122.626 126.378 121.163C126.378 119.712 126.164 118.526 125.736 117.605C125.314 116.685 124.684 116.007 123.847 115.573C123.009 115.138 121.977 114.921 120.75 114.921H118.103V127.443ZM157.17 118.238H152.97C152.894 117.695 152.737 117.212 152.501 116.79C152.264 116.362 151.96 115.998 151.59 115.697C151.219 115.397 150.791 115.167 150.305 115.007C149.826 114.847 149.305 114.767 148.742 114.767C147.726 114.767 146.84 115.02 146.086 115.525C145.332 116.023 144.747 116.752 144.332 117.711C143.916 118.663 143.708 119.82 143.708 121.182C143.708 122.582 143.916 123.758 144.332 124.71C144.753 125.663 145.342 126.382 146.096 126.868C146.85 127.353 147.723 127.596 148.713 127.596C149.269 127.596 149.784 127.523 150.257 127.376C150.736 127.229 151.161 127.015 151.532 126.733C151.903 126.446 152.21 126.097 152.453 125.688C152.702 125.279 152.875 124.813 152.97 124.288L157.17 124.308C157.061 125.209 156.79 126.078 156.355 126.915C155.927 127.746 155.348 128.491 154.62 129.15C153.897 129.801 153.034 130.319 152.031 130.703C151.034 131.08 149.905 131.268 148.646 131.268C146.895 131.268 145.329 130.872 143.948 130.08C142.574 129.287 141.487 128.14 140.688 126.637C139.895 125.135 139.499 123.317 139.499 121.182C139.499 119.04 139.902 117.219 140.707 115.717C141.513 114.214 142.606 113.07 143.986 112.284C145.367 111.491 146.92 111.095 148.646 111.095C149.784 111.095 150.839 111.255 151.81 111.575C152.788 111.894 153.654 112.361 154.409 112.974C155.163 113.582 155.777 114.326 156.25 115.208C156.729 116.091 157.036 117.1 157.17 118.238ZM163.163 131H158.714L165.492 111.364H170.843L177.612 131H173.163L168.244 115.851H168.091L163.163 131ZM162.884 123.282H173.393V126.522H162.884V123.282ZM196.378 118.238H192.178C192.102 117.695 191.945 117.212 191.709 116.79C191.472 116.362 191.168 115.998 190.798 115.697C190.427 115.397 189.999 115.167 189.513 115.007C189.034 114.847 188.513 114.767 187.95 114.767C186.934 114.767 186.048 115.02 185.294 115.525C184.54 116.023 183.955 116.752 183.54 117.711C183.124 118.663 182.916 119.82 182.916 121.182C182.916 122.582 183.124 123.758 183.54 124.71C183.961 125.663 184.55 126.382 185.304 126.868C186.058 127.353 186.931 127.596 187.921 127.596C188.477 127.596 188.992 127.523 189.465 127.376C189.944 127.229 190.369 127.015 190.74 126.733C191.111 126.446 191.418 126.097 191.661 125.688C191.91 125.279 192.083 124.813 192.178 124.288L196.378 124.308C196.269 125.209 195.998 126.078 195.563 126.915C195.135 127.746 194.556 128.491 193.828 129.15C193.105 129.801 192.242 130.319 191.239 130.703C190.242 131.08 189.113 131.268 187.854 131.268C186.103 131.268 184.537 130.872 183.156 130.08C181.782 129.287 180.695 128.14 179.896 126.637C179.104 125.135 178.707 123.317 178.707 121.182C178.707 119.04 179.11 117.219 179.915 115.717C180.721 114.214 181.814 113.07 183.194 112.284C184.575 111.491 186.128 111.095 187.854 111.095C188.992 111.095 190.047 111.255 191.018 111.575C191.996 111.894 192.862 112.361 193.617 112.974C194.371 113.582 194.985 114.326 195.458 115.208C195.937 116.091 196.244 117.1 196.378 118.238ZM206.316 131H199.355V111.364H206.374C208.349 111.364 210.049 111.757 211.474 112.543C212.9 113.323 213.996 114.445 214.763 115.908C215.537 117.372 215.923 119.124 215.923 121.163C215.923 123.208 215.537 124.966 214.763 126.436C213.996 127.906 212.893 129.034 211.455 129.821C210.023 130.607 208.31 131 206.316 131ZM203.507 127.443H206.143C207.371 127.443 208.403 127.225 209.24 126.791C210.084 126.35 210.717 125.669 211.139 124.749C211.567 123.822 211.781 122.626 211.781 121.163C211.781 119.712 211.567 118.526 211.139 117.605C210.717 116.685 210.087 116.007 209.25 115.573C208.413 115.138 207.38 114.921 206.153 114.921H203.507V127.443Z" fill="white"/>
<path d="M138.179 80.7271H110.402C109.599 80.7271 108.829 80.4081 108.261 79.8403C107.694 79.2726 107.375 78.5025 107.375 77.6995C107.375 76.8966 107.694 76.1265 108.261 75.5588C108.829 74.991 109.599 74.6721 110.402 74.6721H138.182C139.232 74.6502 140.23 74.2132 140.958 73.4566C141.686 72.7 142.084 71.6857 142.065 70.6361V52.8881C142.065 52.0851 142.384 51.315 142.952 50.7473C143.52 50.1795 144.29 49.8605 145.093 49.8605C145.896 49.8605 146.666 50.1795 147.233 50.7473C147.801 51.315 148.12 52.0851 148.12 52.8881V70.6361C148.137 73.2916 147.1 75.8455 145.236 77.7373C143.373 79.6291 140.835 80.7043 138.179 80.7271ZM72.0271 59.5951C71.2243 59.5951 70.4543 59.2761 69.8867 58.7085C69.319 58.1408 69.0001 57.3709 69.0001 56.568V10.0911C68.9915 7.67263 69.853 5.33179 71.4273 3.49589C73.0016 1.66 75.1836 0.451512 77.5751 0.0910532C77.8015 0.0579128 78.0312 0.0518649 78.2591 0.0730478C78.4816 0.023229 78.709 -0.00125802 78.9371 4.9733e-05H135.446C136.249 4.9733e-05 137.019 0.319017 137.587 0.886784C138.155 1.45455 138.474 2.2246 138.474 3.02755C138.474 3.83049 138.155 4.60055 137.587 5.16832C137.019 5.73608 136.249 6.05505 135.446 6.05505H78.9371C78.8484 6.05505 78.7597 6.05105 78.6711 6.04305C78.5861 6.06305 78.4991 6.07905 78.4131 6.09105C77.4669 6.24482 76.6075 6.73323 75.9912 7.46738C75.3748 8.20153 75.0426 9.13258 75.0551 10.0911V56.5671C75.0551 57.3701 74.736 58.1403 74.1682 58.7082C73.6003 59.276 72.8301 59.5951 72.0271 59.5951Z" fill="white"/>
<path d="M116.333 22.0931C116.333 22.0931 107.863 14.7931 99.4105 22.6041C99.4105 22.6041 96.4495 11.7971 107.801 11.7721C118.327 11.7521 116.333 22.0931 116.333 22.0931Z" fill="white"/>
<path d="M111.354 46.985C111.354 46.985 117.996 34.723 118.278 33.833C118.595 32.864 120.306 28.763 118.178 21.522C116.05 14.281 113.197 13.114 113.197 13.114C117.869 16.214 114.985 22.198 112.862 25.927C112.462 26.627 112.049 27.316 111.629 28C109.743 31.066 92.6172 61.722 92.6172 61.722L97.6442 69.502L111.354 46.985Z" fill="white"/>
<path d="M107.791 34.6821C106.166 37.5561 104.215 41.0291 102.251 44.5151L103.773 47.3261L107.41 53.3021L111.121 47.2151C111.121 47.2151 111.957 45.6711 113.048 43.6391C111.177 40.4521 109.339 37.3141 107.791 34.6821Z" fill="white"/>
<path d="M104.203 46.9851C104.203 46.9851 97.5591 34.7231 97.2791 33.8331C96.9601 32.8641 95.2511 28.7631 97.3791 21.5221C99.5071 14.2811 102.364 13.1121 102.364 13.1121C97.6881 16.2121 100.576 22.2061 102.695 25.9251C103.095 26.6251 103.508 27.3111 103.93 27.9981C105.817 31.0641 123.385 61.1241 123.385 61.1241L117.916 69.5011L104.203 46.9851Z" fill="white"/>
</svg>
